<svg width="2405" height="1200" viewBox="0 0 2405 1200" fill="none" xmlns="http://www.w3.org/2000/svg">
<path d="M578.2 382.2C578.6 434.6 563.6 475.6 533.2 505.2C502.8 534.4 461 549 407.8 549C376.2 549 347 541.8 320.2 527.4C293.8 513 272.8 492.6 257.2 466.2C241.6 439.8 233.8 409.4 233.8 375V287.4C233.8 253.4 241.2 223.2 256 196.8C271.2 170.4 291.8 150 317.8 135.6C344.2 120.8 373.6 113.4 406 113.4C459.2 113.4 500.8 128 530.8 157.2C561.2 186 576.6 226.8 577 279.6H469C468.6 259.2 463 243.4 452.2 232.2C441.8 221 426.4 215.4 406 215.4C387.6 215.4 372.4 221.2 360.4 232.8C348.4 244.4 342.4 260.8 342.4 282V379.8C342.4 401 348.6 417.6 361 429.6C373.8 441.2 389.4 447 407.8 447C449.8 447 470.8 425.4 470.8 382.2H578.2ZM1046.94 540H653.341L850.141 113.4L1046.94 540ZM688.141 517.8H1012.14L850.141 166.2L688.141 517.8ZM1348.28 228H1230.68V122.4H1457.48V370.2C1457.48 407.4 1450.08 439.6 1435.28 466.8C1420.48 493.6 1400.08 514 1374.08 528C1348.48 542 1319.88 549 1288.28 549C1257.88 549 1229.68 541.4 1203.68 526.2C1178.08 511 1157.68 490.6 1142.48 465C1127.28 439 1119.68 410.8 1119.68 380.4H1228.88C1228.88 398.8 1234.08 414.2 1244.48 426.6C1255.28 439 1269.68 445.2 1287.68 445.2C1306.88 445.2 1321.68 439.2 1332.08 427.2C1342.88 414.8 1348.28 396.8 1348.28 373.2V228ZM1564.42 285C1564.42 253.8 1572.22 224.8 1587.82 198C1603.42 171.2 1624.42 150 1650.82 134.4C1677.62 118.8 1706.82 111 1738.42 111C1770.02 111 1799.02 118.8 1825.42 134.4C1852.22 150 1873.42 171.2 1889.02 198C1904.62 224.8 1912.42 253.8 1912.42 285V377.4C1912.42 408.6 1904.62 437.6 1889.02 464.4C1873.42 491.2 1852.22 512.4 1825.42 528C1799.02 543.6 1770.02 551.4 1738.42 551.4C1706.82 551.4 1677.62 543.6 1650.82 528C1624.42 512.4 1603.42 491.2 1587.82 464.4C1572.22 437.6 1564.42 408.6 1564.42 377.4V285ZM1673.62 377.4C1673.62 396.6 1679.62 413 1691.62 426.6C1703.62 440.2 1719.22 447 1738.42 447C1757.22 447 1772.62 440.2 1784.62 426.6C1796.62 413 1802.62 396.6 1802.62 377.4V284.4C1802.62 264.8 1796.62 248.4 1784.62 235.2C1772.62 222 1757.22 215.4 1738.42 215.4C1719.22 215.4 1703.62 222 1691.62 235.2C1679.62 248.4 1673.62 264.8 1673.62 284.4V377.4ZM2019.96 539.4V121.8H2043.36L2334.96 405.6V121.8H2357.16V539.4H2019.96ZM256 1140V722.4H411.4C441.8 722.4 469.8 730 495.4 745.2C521.4 760.4 542 781 557.2 807C572.4 832.6 580 860.6 580 891V971.4C580 1001.8 572.4 1030 557.2 1056C542 1081.6 521.4 1102 495.4 1117.2C469.8 1132.4 441.8 1140 411.4 1140H256ZM676.141 885C676.141 853.8 683.941 824.8 699.541 798C715.141 771.2 736.141 750 762.541 734.4C789.341 718.8 818.541 711 850.141 711C881.741 711 910.741 718.8 937.141 734.4C963.941 750 985.141 771.2 1000.74 798C1016.34 824.8 1024.14 853.8 1024.14 885V977.4C1024.14 1008.6 1016.34 1037.6 1000.74 1064.4C985.141 1091.2 963.941 1112.4 937.141 1128C910.741 1143.6 881.741 1151.4 850.141 1151.4C818.541 1151.4 789.341 1143.6 762.541 1128C736.141 1112.4 715.141 1091.2 699.541 1064.4C683.941 1037.6 676.141 1008.6 676.141 977.4V885ZM785.341 977.4C785.341 996.6 791.341 1013 803.341 1026.6C815.341 1040.2 830.941 1047 850.141 1047C868.941 1047 884.341 1040.2 896.341 1026.6C908.341 1013 914.341 996.6 914.341 977.4V884.4C914.341 864.8 908.341 848.4 896.341 835.2C884.341 822 868.941 815.4 850.141 815.4C830.941 815.4 815.341 822 803.341 835.2C791.341 848.4 785.341 864.8 785.341 884.4V977.4ZM1131.68 1139.4V721.8H1155.08L1446.68 1005.6V721.8H1468.88V1139.4H1131.68ZM1603.42 828V722.4H1873.42V828H1749.22V1034.4H1873.42V1140H1603.42V1034.4H1727.62V828H1603.42Z" fill="black"/>
<path d="M50 111L50 1140" stroke="black" stroke-width="100"/>
</svg>
